<?xml version="1.0" standalone="no"?><!DOCTYPE svg PUBLIC "-//W3C//DTD SVG 1.1//EN" "http://www.w3.org/Graphics/SVG/1.1/DTD/svg11.dtd"><svg class="icon" width="200px" height="200.00px" viewBox="0 0 1024 1024" version="1.1" xmlns="http://www.w3.org/2000/svg"><path d="M908.732232 94.922906l-762.424516 0c-36.913724 0-66.947761 30.034037-66.947761 66.947761l0 482.31798c0 36.919864 30.034037 66.947761 66.947761 66.947761l132.198881 0c21.472034 0 38.937824 17.464767 38.937824 38.938847l0 145.57554 204.329688-175.143972c7.046486-6.036483 16.029068-9.367345 25.331945-9.367345l361.627201 0c36.912701 0 66.946738-30.02892 66.946738-66.948785L975.679993 161.870668C975.67897 124.957966 945.644933 94.922906 908.732232 94.922906zM947.670056 644.188648c0 21.472034-17.46579 38.946011-38.937824 38.946011L547.105031 683.134659c-15.97381 0-31.455409 5.717212-43.560098 16.118096l-158.090575 135.487787L345.454358 750.07321c0-36.905538-30.034037-66.940598-66.947761-66.940598L146.307715 683.132612c-21.472034 0-38.938847-17.47193-38.938847-38.946011L107.368868 161.870668c0-21.479197 17.464767-38.944987 38.938847-38.944987l762.424516 0c21.469987 0 38.937824 17.464767 38.937824 38.944987L947.670056 644.188648 947.670056 644.188648z" /></svg>