<?xml version="1.0" standalone="no"?><!DOCTYPE svg PUBLIC "-//W3C//DTD SVG 1.1//EN" "http://www.w3.org/Graphics/SVG/1.1/DTD/svg11.dtd"><svg class="icon" width="200px" height="200.00px" viewBox="0 0 1024 1024" version="1.1" xmlns="http://www.w3.org/2000/svg"><path d="M738.261333 188.155733V138.295467a27.362133 27.362133 0 0 0-54.724266 0v49.860266a4.266667 4.266667 0 0 1-4.266667 4.266667H344.7296a4.266667 4.266667 0 0 1-4.266667-4.266667V138.295467a27.362133 27.362133 0 1 0-54.724266 0v49.860266a4.266667 4.266667 0 0 1-4.266667 4.266667H149.333333c-28.2752 0-51.2 22.920533-51.2 51.2V861.866667c0 28.2752 22.9248 51.2 51.2 51.2h725.333334c28.2752 0 51.2-22.9248 51.2-51.2V243.6224c0-28.279467-22.9248-51.2-51.2-51.2h-132.138667a4.266667 4.266667 0 0 1-4.266667-4.266667zM853.333333 857.6H170.666667a17.066667 17.066667 0 0 1-17.066667-17.066667V264.533333a17.066667 17.066667 0 0 1 17.066667-17.066666h115.524266v58.5728a27.3152 27.3152 0 1 0 54.6304 0V247.466667h342.263467v58.5728a27.3152 27.3152 0 1 0 54.6304 0V247.466667H853.333333a17.066667 17.066667 0 0 1 17.066667 17.066666v576a17.066667 17.066667 0 0 1-17.066667 17.066667z" /></svg>